PathFileType	4	(X/Y/Z)	..\data\2014001\dynamic\2014001_C4_04.trc
DataRate	CameraRate	NumFrames	NumMarkers	Units	OrigDataRate	OrigDataStartFrame	OrigNumFrames
100.000000	100.000000	4	52	mm	100.000000	19	155
Frame#	Time	L_IAS			L_IPS			R_IPS			R_IAS			L_FTC			L_FLE			L_FME			L_FAX			L_TTC			L_FAL			L_TAM			L_FCC			L_FM1			L_FM2			L_FM5			R_FTC			R_FLE			R_FME			R_FAX			R_TTC			R_FAL			R_TAM			R_FCC			R_FM1			R_FM2			R_FM5			CV7			TV10			SXS			SJN			L_SIA			L_SRS			L_SAA			L_SAE			L_HLE			L_HME			L_UOA			L_RSP			L_UHE			L_HM2			L_HM5			R_SIA			R_SRS			R_SAA			R_SAE			R_HLE			R_HME			R_UOA			R_RSP			R_UHE			R_HM2			R_HM5			
		X1	Y1	Z1	X2	Y2	Z2	X3	Y3	Z3	X4	Y4	Z4	X5	Y5	Z5	X6	Y6	Z6	X7	Y7	Z7	X8	Y8	Z8	X9	Y9	Z9	X10	Y10	Z10	X11	Y11	Z11	X12	Y12	Z12	X13	Y13	Z13	X14	Y14	Z14	X15	Y15	Z15	X16	Y16	Z16	X17	Y17	Z17	X18	Y18	Z18	X19	Y19	Z19	X20	Y20	Z20	X21	Y21	Z21	X22	Y22	Z22	X23	Y23	Z23	X24	Y24	Z24	X25	Y25	Z25	X26	Y26	Z26	X27	Y27	Z27	X28	Y28	Z28	X29	Y29	Z29	X30	Y30	Z30	X31	Y31	Z31	X32	Y32	Z32	X33	Y33	Z33	X34	Y34	Z34	X35	Y35	Z35	X36	Y36	Z36	X37	Y37	Z37	X38	Y38	Z38	X39	Y39	Z39	X40	Y40	Z40	X41	Y41	Z41	X42	Y42	Z42	X43	Y43	Z43	X44	Y44	Z44	X45	Y45	Z45	X46	Y46	Z46	X47	Y47	Z47	X48	Y48	Z48	X49	Y49	Z49	X50	Y50	Z50	X51	Y51	Z51	X52	Y52	Z52	

20	0.19	79.34236907958986	852.1746826171877	-413.8587341308595	-87.26284027099611	895.4498291015627	-323.4539489746094	-81.60926055908205	896.4907226562502	-232.7197418212891	106.3193969726563	873.0009765625002	-178.0804290771485	-6.692872524261476	764.5604858398439	-462.1910705566407	-25.08036422729493	418.330047607422	-454.3103027343751	14.84346199035645	389.180877685547	-343.0476074218751	-75.64298248291017	385.5706481933595	-458.1332397460939	-41.1230697631836	323.0523986816407	-418.7611694335939	-340.7872619628907	215.0636444091797	-397.1287536621095	-306.8843078613282	196.0814514160157	-315.7790832519532	-379.2353210449219	238.2951354980469	-341.4364624023438	-328.8671264648438	73.9007034301758	-318.7636718750001	-330.3261718750001	67.61181640625001	-378.2817077636719	-363.6914367675782	104.3830642700196	-416.5023193359376	32.48612594604493	774.9656982421877	-108.0173950195313	155.2625274658203	441.7576293945314	-167.3554229736328	153.9214935302735	438.5308227539064	-286.6886596679688	146.7402496337891	374.7865600585938	-164.27001953125	203.0736083984376	376.8173828125001	-223.5586090087891	118.4498443603516	65.3034133911133	-216.8711395263672	151.5769805908203	84.46527099609376	-301.6730957031251	72.38824462890626	24.52454948425294	-271.2087402343751	260.8015441894532	22.03070640563965	-293.3994140625001	266.7367248535157	34.92626571655274	-228.4993438720704	208.177963256836	22.9848918914795	-181.3321228027344	-64.60369110107423	1362.365600585938	-273.2708129882813	-116.9134674072266	1126.099487304688	-281.2781372070313	115.4631576538086	1141.582153320313	-291.1485595703126	65.39669036865236	1301.885131835938	-282.0520019531251	-123.9774703979492	1169.079711914063	-377.4411010742188	-108.3579788208008	1300.825439453125	-365.3839721679688	-31.75208473205567	1299.634887695313	-475.7673645019532	6.636586189270021	1313.005737304688	-458.3881835937501	18.99804115295411	1029.279418945313	-542.4305419921876	-4.749022483825684	990.3889770507815	-469.8553771972657	-6.61634683609009	985.5591430664065	-521.1459350585939	181.22216796875	845.4971923828127	-477.1744689941407	150.4411163330078	823.1455688476565	-547.1591796875001	245.1125183105469	786.216491699219	-477.3526916503907	178.1772003173828	749.9891967773439	-544.8139648437501	-121.4633560180664	1162.693481445313	-169.4612121582032	-98.27153015136722	1288.571044921875	-186.840805053711	-18.87571144104004	1284.800048828125	-85.80262756347658	29.02304649353028	1291.183227539063	-97.71761322021487	-26.81688308715821	987.5317382812502	-42.5522804260254	-56.61664199829103	977.8191528320315	-118.7329711914063	-60.61544036865236	971.7800292968752	-72.49397277832033	30.56329727172852	765.9773559570314	-71.75696563720705	-19.88934707641602	775.546325683594	-7.728721141815187	35.73141479492188	670.3752441406251	-57.86579895019533	-47.63777160644532	700.7099609375001	-7.601587772369387	
21	0.2	92.20727539062501	855.760681152344	-413.3213806152345	-73.86691284179689	898.2150878906252	-321.4371643066407	-67.75752258300783	899.300476074219	-230.8457946777344	119.8612518310547	875.2121582031252	-177.3482513427735	7.784069538116457	767.1611328125001	-460.3936767578126	4.776525497436524	419.8405761718751	-454.0474853515626	43.16286849975587	392.0328674316407	-341.3052978515626	-45.01393127441407	386.9148254394532	-458.2883300781251	-10.90242958068848	324.8706054687501	-417.6246337890626	-311.5827636718751	219.0538024902344	-397.9719848632814	-278.8976745605469	200.2240447998047	-315.9936218261719	-351.8132324218751	241.2251586914063	-342.8658142089844	-296.9692382812501	77.60884094238283	-321.8632507324219	-297.9062500000001	72.3535842895508	-381.1173400878907	-331.5879821777344	109.4115905761719	-419.0708312988282	46.06958770751954	777.087097167969	-107.1931991577149	160.5593414306641	441.2023315429689	-166.83447265625	159.1190338134766	437.964569091797	-286.3876037597657	150.718994140625	374.4081115722657	-163.9239044189453	207.3715972900391	375.5750122070313	-223.0768127441407	118.5895080566407	65.5409622192383	-217.0426788330079	151.7802124023438	84.5496292114258	-301.8710021972657	72.57728576660158	24.71825599670411	-271.2510375976563	260.6136169433594	22.32061767578125	-293.6353454589844	266.8677673339844	35.58329010009766	-228.6162567138672	208.2785034179688	23.63571739196778	-181.2664184570313	-49.94752120971681	1365.569458007813	-273.1404418945313	-103.0936050415039	1129.482543945313	-280.1292114257813	129.159408569336	1144.20703125	-291.4640808105469	79.82003021240236	1304.768188476563	-282.4098510742188	-110.3316345214844	1172.459350585938	-376.5676879882813	-94.17884063720705	1304.082885742188	-365.0114135742188	-17.96493148803711	1302.61279296875	-475.6588134765626	20.48508834838868	1315.78759765625	-458.4471435546876	30.64531135559083	1031.671752929688	-541.3251342773439	6.333311557769777	993.6106567382815	-468.2930603027345	4.074728012084962	988.9820556640627	-519.5554199218751	187.2411193847657	841.9829711914065	-479.5945434570314	154.147201538086	821.2244873046877	-549.0393066406251	248.2771759033204	779.8381958007815	-481.1839294433595	178.7202911376953	747.0841064453126	-547.5789794921876	-106.9561996459961	1166.613037109375	-168.0484161376953	-83.49354553222658	1292.251953125	-186.2165069580078	-3.198481082916261	1288.445678710938	-85.64145660400392	44.74165725708009	1294.496459960938	-98.11759948730472	-7.662461757659914	990.770202636719	-40.95124816894532	-38.78512954711915	980.4197998046877	-116.5495071411133	-42.0412712097168	974.451354980469	-70.24440765380861	52.92096328735353	770.2475585937502	-70.65445709228517	3.304590940475465	779.0982055664065	-5.864099025726319	60.42264938354494	674.9325561523439	-56.36486816406251	-22.78795623779297	703.7161254882814	-4.957744598388673	
22	0.21	104.9691467285157	859.5216064453127	-412.847625732422	-60.58575820922853	901.1787109375002	-319.4929199218751	-54.01703262329103	902.1934204101565	-229.0447540283204	133.2481079101563	877.3980712890627	-176.7010040283203	22.05767822265625	770.156188964844	-458.7162170410157	34.29974746704102	422.2242126464845	-453.650848388672	71.1928176879883	395.7367553710939	-339.4964904785157	-14.67630386352539	388.9447021484376	-458.1741027832032	19.38509178161621	327.4639587402344	-416.4667358398439	-281.4502868652344	221.7353973388672	-398.7151184082032	-249.7937774658204	203.2606811523438	-316.1987915039063	-323.6826477050782	242.3162231445313	-344.1697998046876	-262.6780090332032	80.33963012695314	-325.0260314941407	-262.9806823730469	76.32908630371095	-384.0750122070314	-297.4525146484376	113.0133666992188	-421.642303466797	59.29874801635744	779.1343994140627	-106.4630889892578	165.0282135009766	440.6356506347657	-166.1441192626953	163.7025604248047	437.4057617187501	-285.8924255371094	153.959228515625	374.0116882324219	-163.4309844970703	210.9339752197266	374.3750000000001	-222.3676757812501	118.6459350585938	65.72168731689455	-217.1438293457032	151.8962097167969	84.60391998291017	-301.9849548339844	72.73101806640626	24.88682365417481	-271.2925415039063	260.4465332031251	22.73163986206055	-293.7052612304688	266.9392700195313	36.17921829223634	-228.6341857910157	208.3673095703126	24.07878684997559	-181.2078857421875	-35.43886947631837	1368.809448242188	-273.0980224609376	-89.36254882812501	1132.878173828125	-278.9453735351563	142.7516021728516	1146.918212890625	-291.8526000976563	94.10457611083986	1307.717041015625	-282.8597106933594	-96.81999206542972	1175.833740234375	-375.6227111816407	-80.18247222900392	1307.340454101563	-364.6525878906251	-4.425458908081056	1305.607299804688	-475.5892639160157	34.08658981323243	1318.603759765625	-458.5877685546876	42.22394180297852	1034.193603515625	-540.3280029296876	17.31237602233887	996.9085693359377	-466.8941345214845	14.72440052032471	992.558776855469	-518.0994262695314	192.7989807128907	838.6965332031252	-482.0768432617189	157.5798492431641	819.7755126953127	-551.0842285156251	250.6618194580079	773.6405029296877	-484.9522094726564	178.782943725586	744.7116699218751	-550.4743652343751	-92.51792144775392	1170.611083984375	-166.6420135498047	-68.86179351806642	1295.988525390625	-185.6597900390625	12.31627464294434	1292.241821289063	-85.58129119873048	60.29805755615236	1297.9560546875	-98.6165466308594	11.32974338531494	994.247497558594	-39.33519363403321	-21.03855323791504	983.179138183594	-114.3403625488282	-23.55059432983399	977.2900390625002	-67.97104644775392	75.5458221435547	774.9068603515627	-69.6022186279297	26.74752235412598	782.944274902344	-4.081434249877931	85.77305603027345	680.0211181640626	-54.82252502441408	2.59176516532898	706.9804687500001	-2.362969636917115	
23	0.22	117.7441864013672	863.3586425781252	-412.344451904297	-47.3750343322754	904.2673950195315	-317.7189941406251	-40.38807678222657	905.1131591796877	-227.3937225341797	146.4768829345703	879.550964355469	-176.0645141601563	36.27988815307618	773.4421386718752	-457.2010498046876	63.34730529785158	425.3963012695314	-453.1519470214845	98.87145996093753	400.1747131347657	-337.7225646972657	15.21548557281494	391.5854797363282	-457.8274841308595	49.60922622680665	330.7479553222657	-415.3596191406251	-250.5101928710938	222.9589385986329	-399.3493957519532	-219.6445617675782	205.0101928710938	-316.4126892089844	-294.8516540527344	241.5001831054688	-345.3143005371094	-226.3439941406251	81.98336029052736	-328.1640319824219	-225.9680938720704	79.36129760742189	-387.0572204589845	-261.6396179199219	115.0780258178711	-424.1318969726564	72.15328216552736	781.091735839844	-105.8178787231446	168.8505401611328	440.114959716797	-165.306869506836	167.8213958740235	436.9062805175782	-285.2254943847657	156.6479949951172	373.6439819335938	-162.8042297363282	213.9153289794922	373.2617492675782	-221.4656219482422	118.6485443115235	65.86110687255861	-217.1757202148438	151.9598846435547	84.62271881103517	-302.0233764648438	72.83571624755861	25.06304740905762	-271.3215637207032	260.3126525878907	23.16230583190918	-293.6399841308594	266.9802856445313	36.63276672363282	-228.5684204101563	208.4356536865235	24.29653358459473	-181.1390075683594	-21.06320190429688	1372.018188476563	-273.1256103515626	-75.68775939941408	1136.219116210938	-277.7433166503907	156.2819519042969	1149.670532226563	-292.2799072265626	108.2708587646485	1310.676879882813	-283.3764343261719	-83.40991973876955	1179.141723632813	-374.6159667968751	-66.3431854248047	1310.530395507813	-364.2919921875001	8.888543128967287	1308.554443359375	-475.5373535156251	47.46585845947266	1321.391967773438	-458.7944335937501	53.69278717041017	1036.782104492188	-539.4437866210939	28.18731117248536	1000.211608886719	-465.6630249023439	25.31432723999024	996.2119750976565	-516.7803955078126	197.9303741455079	835.6571044921877	-484.5939025878907	160.8270263671875	818.7966918945315	-553.2802734375001	252.3406219482422	767.6988525390626	-488.6097106933595	178.5054931640625	742.8992919921876	-553.4978637695314	-78.09378814697267	1174.599853515625	-165.2430114746094	-54.35218048095705	1299.699951171875	-185.1573638916016	27.68288803100587	1296.122436523438	-85.60281372070314	75.69441223144533	1301.51416015625	-99.18776702880862	30.12567138671876	997.9055786132815	-37.69837951660157	-3.381027460098267	986.0496826171877	-112.1149978637696	-5.152110099792481	980.2349243164065	-65.68202972412111	98.40039825439456	779.9193115234377	-68.60603332519533	50.38155364990236	787.0405883789065	-2.402322053909302	111.6965713500977	685.6146240234376	-53.28192138671876	28.42363739013673	710.4863891601564	0.1286367475986481	
